<svg width="24" height="24" viewBox="0 0 24 24" fill="none" xmlns="http://www.w3.org/2000/svg">
<path d="M11 8V20H9V8H11Z" fill="#003D8F"/>
<path d="M15 8V20H13V8H15Z" fill="#003D8F"/>
<path fill-rule="evenodd" clip-rule="evenodd" d="M9 0C7.89543 0 7 0.89543 7 2V4H1V6H3V20C3 22.2091 4.79086 24 7 24H17.5C19.433 24 21 22.433 21 20.5V6H23V4H17V2C17 0.895431 16.1046 0 15 0H9ZM19 6H5V20C5 21.1046 5.89543 22 7 22H17.5C18.3284 22 19 21.3284 19 20.5V6ZM15 4H9V3C9 2.44772 9.44772 2 10 2H14C14.5523 2 15 2.44772 15 3V4Z" fill="#003D8F"/>
</svg>
