<svg width="122" height="145" viewBox="0 0 122 145" fill="none" xmlns="http://www.w3.org/2000/svg">
<path opacity="0.4" d="M61 75L120.999 109.641L61 144.281L1.00075 109.641L61 75Z" fill="#CBE7FE"/>
<path d="M61 44L120.999 78.6406L61 113.281L1.00075 78.6406L61 44Z" fill="white"/>
<path d="M61 44L61.433 43.75L61 43.5L60.567 43.75L61 44ZM120.999 78.6406L121.432 78.8906L121.432 78.3906L120.999 78.6406ZM61 113.281L60.567 113.531L61.433 113.531L61 113.281ZM1.00075 78.6406L0.567734 78.3906L0.567734 78.8906L1.00075 78.6406ZM60.567 44.25L120.566 78.8906L121.432 78.3906L61.433 43.75L60.567 44.25ZM120.566 78.3906L60.567 113.031L61.433 113.531L121.432 78.8906L120.566 78.3906ZM61.433 113.031L1.43376 78.3906L0.567734 78.8906L60.567 113.531L61.433 113.031ZM1.43376 78.8906L61.433 44.25L60.567 43.75L0.567734 78.3906L1.43376 78.8906Z" fill="#002C6B"/>
<path d="M1 78.8867L60.9992 113.527L60.9992 135.633L1 100.992L1 78.8867Z" fill="#CBE7FE"/>
<path d="M1 78.8867L1 78.3867L0.566987 78.6367L1 78.8867ZM60.9992 113.527L61.4323 113.777L60.9992 113.027L60.9992 113.527ZM60.9992 135.633L60.9992 136.133L61.4323 135.883L60.9992 135.633ZM1 100.992L0.566987 100.742L0.566987 101.242L1 101.492L1 100.992ZM1 79.3867L60.9992 114.027L60.9992 113.027L1 78.3867L1 79.3867ZM60.5662 113.277L60.5662 135.383L61.4323 135.883L61.4323 113.777L60.5662 113.277ZM60.9992 135.133L1 100.492L1 101.492L60.9992 136.133L60.9992 135.133ZM1.43301 101.242L1.43301 79.1367L0.566987 78.6367L0.566987 100.742L1.43301 101.242Z" fill="#002C6B"/>
<path d="M61 113.527L120.999 78.8868L120.999 100.992L61 135.633L61 113.527Z" fill="#CBE7FE"/>
<path d="M61 113.527L61 113.027L60.567 113.777L61 113.527ZM120.999 78.8868L121.432 78.6368L120.999 78.3868L120.999 78.8868ZM120.999 100.992L120.999 101.492L121.432 101.242L121.432 100.742L120.999 100.992ZM61 135.633L60.567 135.883L61 136.133L61 135.633ZM61 114.027L120.999 79.3868L120.999 78.3868L61 113.027L61 114.027ZM120.566 79.1368L120.566 101.242L121.432 100.742L121.432 78.6368L120.566 79.1368ZM120.999 100.492L61 135.133L61 136.133L120.999 101.492L120.999 100.492ZM61.433 135.383L61.433 113.277L60.567 113.777L60.567 135.883L61.433 135.383Z" fill="#002C6B"/>
<path d="M105.211 92.6299L105.211 105.983" stroke="#002C6B"/>
<path d="M110.68 89.4717L110.68 102.825" stroke="#002C6B"/>
<path d="M116.15 86.3145L116.15 99.6679" stroke="#002C6B"/>
<ellipse cx="1.82321" cy="1.82321" rx="1.82321" ry="1.82321" transform="matrix(0.866025 0.5 -2.20305e-08 1 5.73633 87.0352)" fill="#002C6B"/>
<ellipse cx="1.82321" cy="1.82321" rx="1.82321" ry="1.82321" transform="matrix(0.866025 0.5 -2.20305e-08 1 12.0527 90.6816)" fill="#002C6B"/>
<ellipse cx="1.82321" cy="1.82321" rx="1.82321" ry="1.82321" transform="matrix(0.866025 0.5 -2.20305e-08 1 18.3672 94.3281)" fill="#002C6B"/>
<circle cx="19" cy="19" r="19" transform="matrix(0.866025 0.5 -0.866025 0.5 60.9082 60)" fill="#CBE7FE" stroke="#002C6B"/>
<path fill-rule="evenodd" clip-rule="evenodd" d="M44.4538 88.5002C53.5414 93.7469 68.2752 93.7469 77.3628 88.5002C80.2368 86.8409 82.2019 84.8554 83.2581 82.7502C82.2019 80.6451 80.2368 78.6597 77.3629 77.0005C68.2753 71.7538 53.5415 71.7538 44.4539 77.0005C41.5798 78.6598 39.6147 80.6452 38.5586 82.7505C39.6148 84.8556 41.5798 86.8409 44.4538 88.5002Z" fill="white"/>
<path d="M77.3628 88.5002L77.6128 88.9332L77.3628 88.5002ZM44.4538 88.5002L44.7038 88.0672L44.4538 88.5002ZM83.2581 82.7502L83.705 82.9744L83.8175 82.7502L83.705 82.526L83.2581 82.7502ZM77.3629 77.0005L77.6129 76.5674L77.3629 77.0005ZM44.4539 77.0005L44.7039 77.4335L44.4539 77.0005ZM38.5586 82.7505L38.1117 82.5263L37.9992 82.7505L38.1117 82.9747L38.5586 82.7505ZM77.1128 88.0672C72.6629 90.6363 66.7991 91.9352 60.9083 91.9352C55.0174 91.9352 49.1537 90.6363 44.7038 88.0672L44.2038 88.9332C48.8415 91.6108 54.8884 92.9352 60.9083 92.9352C66.9281 92.9352 72.9751 91.6108 77.6128 88.9332L77.1128 88.0672ZM82.8112 82.526C81.8098 84.5221 79.9261 86.4429 77.1128 88.0672L77.6128 88.9332C80.5476 87.2388 82.5941 85.1888 83.705 82.9744L82.8112 82.526ZM77.1129 77.4335C79.9261 79.0577 81.8097 80.9784 82.8112 82.9744L83.705 82.526C82.5941 80.3117 80.5476 78.2618 77.6129 76.5674L77.1129 77.4335ZM44.7039 77.4335C49.1538 74.8643 55.0176 73.5654 60.9084 73.5654C66.7992 73.5654 72.663 74.8643 77.1129 77.4335L77.6129 76.5674C72.9752 73.8899 66.9283 72.5654 60.9084 72.5654C54.8885 72.5654 48.8416 73.8899 44.2039 76.5674L44.7039 77.4335ZM39.0055 82.9747C40.0069 80.9785 41.8906 79.0578 44.7039 77.4335L44.2039 76.5674C41.2691 78.2619 39.2226 80.3119 38.1117 82.5263L39.0055 82.9747ZM44.7038 88.0672C41.8906 86.443 40.0069 84.5223 39.0055 82.5262L38.1117 82.9747C39.2226 85.1889 41.2691 87.2389 44.2038 88.9332L44.7038 88.0672Z" fill="#002C6B"/>
<path d="M104.15 0H17.6504L37.6504 78.5834C37.4594 82.1592 39.7276 85.7707 44.4549 88.5C53.5425 93.7467 68.2763 93.7467 77.3639 88.5C82.205 85.705 84.4672 81.9848 84.1504 78.3252L104.15 0Z" fill="url(#paint0_linear_190_2651)"/>
<defs>
<linearGradient id="paint0_linear_190_2651" x1="61.0005" y1="80" x2="61.0005" y2="21.5" gradientUnits="userSpaceOnUse">
<stop stop-color="#CBE7FE"/>
<stop offset="1" stop-color="#CBE7FE" stop-opacity="0"/>
</linearGradient>
</defs>
</svg>
