<svg width="24" height="24" viewBox="0 0 24 24" fill="none" xmlns="http://www.w3.org/2000/svg">
<mask id="path-1-inside-1_190_2811" fill="white">
<path fill-rule="evenodd" clip-rule="evenodd" d="M10.7099 16.7099C10.0052 16.8991 9.26439 17 8.5 17C3.80558 17 0 13.1944 0 8.5C0 3.80558 3.80558 0 8.5 0C13.1944 0 17 3.80558 17 8.5C17 9.26439 16.8991 10.0052 16.7099 10.7099L24 18V24H18L10.7099 16.7099Z"/>
</mask>
<path d="M10.7099 16.7099L12.1241 15.2957L11.3071 14.4787L10.1912 14.7783L10.7099 16.7099ZM16.7099 10.7099L14.7783 10.1912L14.4787 11.3071L15.2957 12.1241L16.7099 10.7099ZM24 18H26V17.1716L25.4142 16.5858L24 18ZM24 24V26H26V24H24ZM18 24L16.5858 25.4142L17.1716 26H18V24ZM8.5 19C9.4411 19 10.3562 18.8757 11.2285 18.6415L10.1912 14.7783C9.6542 14.9225 9.08769 15 8.5 15V19ZM-2 8.5C-2 14.299 2.70101 19 8.5 19V15C4.91015 15 2 12.0899 2 8.5H-2ZM8.5 -2C2.70101 -2 -2 2.70101 -2 8.5H2C2 4.91015 4.91015 2 8.5 2V-2ZM19 8.5C19 2.70101 14.299 -2 8.5 -2V2C12.0899 2 15 4.91015 15 8.5H19ZM18.6415 11.2285C18.8757 10.3562 19 9.4411 19 8.5H15C15 9.08769 14.9225 9.6542 14.7783 10.1912L18.6415 11.2285ZM15.2957 12.1241L22.5858 19.4142L25.4142 16.5858L18.1241 9.29568L15.2957 12.1241ZM26 24V18H22V24H26ZM18 26H24V22H18V26ZM19.4142 22.5858L12.1241 15.2957L9.29568 18.1241L16.5858 25.4142L19.4142 22.5858Z" fill="#003D8F" mask="url(#path-1-inside-1_190_2811)"/>
<path d="M8.5 11C9.88071 11 11 9.88071 11 8.5C11 7.11929 9.88071 6 8.5 6C7.11929 6 6 7.11929 6 8.5" stroke="#003D8F" stroke-width="2"/>
</svg>
